<svg width="114" height="24" viewBox="0 0 114 24" fill="none" xmlns="http://www.w3.org/2000/svg">
<path d="M41.1477 18V4.66H38.7677L34.6077 14.7L30.4677 4.66H28.0877V18H29.7477V7.02L34.2677 18H34.9477L39.4877 7.02V18H41.1477ZM43.6596 21.78C43.9396 21.86 44.4396 21.92 44.7596 21.92C46.0396 21.9 47.0196 21.36 47.5996 19.96L52.4396 8.34H50.7996L47.5996 16.26L44.3796 8.34H42.7596L46.7996 18.1L46.1596 19.56C45.8196 20.36 45.3796 20.58 44.7196 20.58C44.4796 20.58 44.1196 20.52 43.8996 20.42L43.6596 21.78ZM63.9205 18.24C66.4605 18.24 68.2205 16.28 68.2205 13.16C68.2205 10.02 66.4605 8.1 63.9205 8.1C62.5605 8.1 61.3605 8.8 60.6605 9.78V8.34H59.1605V21.68H60.6605V16.54C61.4405 17.62 62.6005 18.24 63.9205 18.24ZM63.5405 16.9C62.3605 16.9 61.1805 16.18 60.6605 15.34V10.98C61.1805 10.14 62.3605 9.44 63.5405 9.44C65.4805 9.44 66.6405 11.02 66.6405 13.16C66.6405 15.3 65.4805 16.9 63.5405 16.9ZM72.1058 18V11.16C72.5458 10.38 73.8058 9.62 74.7258 9.62C74.9658 9.62 75.1458 9.64 75.3258 9.68V8.14C74.0058 8.14 72.8858 8.88 72.1058 9.9V8.34H70.6058V18H72.1058ZM81.4274 18.24C84.3674 18.24 86.2074 15.96 86.2074 13.16C86.2074 10.36 84.3674 8.1 81.4274 8.1C78.4874 8.1 76.6474 10.36 76.6474 13.16C76.6474 15.96 78.4874 18.24 81.4274 18.24ZM81.4274 16.9C79.3674 16.9 78.2074 15.14 78.2074 13.16C78.2074 11.2 79.3674 9.44 81.4274 9.44C83.4874 9.44 84.6274 11.2 84.6274 13.16C84.6274 15.14 83.4874 16.9 81.4274 16.9ZM90.5727 18V9.66H92.5327V8.34H90.5727V7.6C90.5727 6.38 91.1127 5.7 92.0927 5.7C92.4727 5.7 92.7327 5.8 92.9527 5.94L93.3327 4.8C92.9527 4.56 92.4327 4.46 91.8727 4.46C90.1927 4.46 89.0727 5.6 89.0727 7.6V8.34H87.4727V9.66H89.0727V18H90.5727ZM95.0527 6.96C95.6127 6.96 96.0727 6.52 96.0727 5.96C96.0727 5.4 95.6127 4.94 95.0527 4.94C94.5127 4.94 94.0527 5.4 94.0527 5.96C94.0527 6.52 94.5127 6.96 95.0527 6.96ZM95.8127 18V8.34H94.3127V18H95.8127ZM100.328 18V4.66H98.8285V18H100.328ZM107.681 18.24C109.261 18.24 110.561 17.72 111.521 16.76L110.801 15.78C110.041 16.56 108.921 17 107.821 17C105.741 17 104.461 15.48 104.341 13.66H112.161V13.28C112.161 10.38 110.441 8.1 107.521 8.1C104.761 8.1 102.761 10.36 102.761 13.16C102.761 16.18 104.821 18.24 107.681 18.24ZM110.681 12.56H104.341C104.421 11.08 105.441 9.34 107.501 9.34C109.701 9.34 110.661 11.12 110.681 12.56Z" fill="#262626"/>
<path fill-rule="evenodd" clip-rule="evenodd" d="M19.8524 18.6787C19.369 17.3903 18.6278 16.2144 17.6742 15.2229C16.7206 14.2313 15.5747 13.4451 14.3068 12.9125C14.9963 12.3457 15.5531 11.6345 15.9379 10.8288C16.3227 10.0232 16.5261 9.14286 16.5338 8.24996C16.5089 6.68511 15.9054 5.18503 14.8398 4.03949C13.7743 2.89395 12.3224 2.18422 10.7646 2.04746C10.2544 1.98418 9.73845 1.98418 9.2283 2.04746C7.67136 2.18539 6.22063 2.89563 5.15615 4.04105C4.09166 5.18648 3.48885 6.68589 3.46406 8.24996C3.47147 9.14291 3.67478 10.0233 4.0596 10.829C4.44442 11.6347 5.00138 12.3459 5.69108 12.9125C4.42289 13.4449 3.27673 14.231 2.32291 15.2226C1.36909 16.2141 0.627688 17.3902 0.14418 18.6787C0.00779153 19.0554 -0.032697 19.4602 0.0263985 19.8565C0.085494 20.2529 0.242307 20.6282 0.482659 20.9487C0.732073 21.2779 1.05477 21.5443 1.4251 21.7268C1.79544 21.9093 2.20321 22.0028 2.61599 21.9999H17.3906C17.803 22.0027 18.2104 21.9091 18.5803 21.7266C18.9502 21.5441 19.2725 21.2777 19.5215 20.9487C19.7612 20.6278 19.917 20.2522 19.9748 19.8557C20.0326 19.4593 19.9905 19.0547 19.8524 18.6787ZM6.07827 8.24996C6.09554 7.30216 6.46567 6.39493 7.11624 5.70594C7.7668 5.01694 8.65092 4.59579 9.59548 4.52495C9.86466 4.49161 10.1369 4.49161 10.4061 4.52495C11.1165 4.63395 11.7808 4.94453 12.3202 5.41984C12.8596 5.89514 13.2515 6.51526 13.4495 7.20668C13.6474 7.8981 13.6431 8.63182 13.4371 9.32089C13.2311 10.01 12.832 10.6255 12.2872 11.0945C11.7423 11.5634 11.0745 11.8662 10.3629 11.967C9.65125 12.0677 8.92568 11.9621 8.27221 11.6627C7.61874 11.3633 7.06477 10.8827 6.67591 10.2778C6.28705 9.67297 6.07965 8.9692 6.07827 8.24996ZM2.61348 19.4999C3.20541 18.0238 4.22535 16.7588 5.54193 15.8678C6.85851 14.9768 8.41148 14.5007 10.0008 14.5007C11.5902 14.5007 13.1431 14.9768 14.4597 15.8678C15.7763 16.7588 16.7962 18.0238 17.3881 19.4999H2.61599H2.61348Z" fill="#22262A"/>
</svg>
