<svg width="115" height="33" viewBox="0 0 115 33" fill="none" xmlns="http://www.w3.org/2000/svg">
<path d="M3.78012 20.16H8.48012V22H1.50012V8.1H3.78012V20.16ZM16.7268 22.14C15.4335 22.14 14.2402 21.84 13.1468 21.24C12.0668 20.6267 11.2068 19.78 10.5668 18.7C9.94017 17.6067 9.62684 16.38 9.62684 15.02C9.62684 13.66 9.94017 12.44 10.5668 11.36C11.2068 10.28 12.0668 9.44 13.1468 8.84C14.2402 8.22667 15.4335 7.92 16.7268 7.92C18.0335 7.92 19.2268 8.22667 20.3068 8.84C21.4002 9.44 22.2602 10.28 22.8868 11.36C23.5135 12.44 23.8268 13.66 23.8268 15.02C23.8268 16.38 23.5135 17.6067 22.8868 18.7C22.2602 19.78 21.4002 20.6267 20.3068 21.24C19.2268 21.84 18.0335 22.14 16.7268 22.14ZM16.7268 20.16C17.6468 20.16 18.4668 19.9533 19.1868 19.54C19.9068 19.1133 20.4668 18.5133 20.8668 17.74C21.2802 16.9533 21.4868 16.0467 21.4868 15.02C21.4868 13.9933 21.2802 13.0933 20.8668 12.32C20.4668 11.5467 19.9068 10.9533 19.1868 10.54C18.4668 10.1267 17.6468 9.92 16.7268 9.92C15.8068 9.92 14.9868 10.1267 14.2668 10.54C13.5468 10.9533 12.9802 11.5467 12.5668 12.32C12.1668 13.0933 11.9668 13.9933 11.9668 15.02C11.9668 16.0467 12.1668 16.9533 12.5668 17.74C12.9802 18.5133 13.5468 19.1133 14.2668 19.54C14.9868 19.9533 15.8068 20.16 16.7268 20.16ZM34.4504 19.16H28.6304L27.6304 22H25.2504L30.2304 8.08H32.8704L37.8504 22H35.4504L34.4504 19.16ZM33.8104 17.3L31.5504 10.84L29.2704 17.3H33.8104ZM44.5557 8.1C46.0357 8.1 47.3291 8.38667 48.4357 8.96C49.5557 9.52 50.4157 10.3333 51.0157 11.4C51.6291 12.4533 51.9357 13.6867 51.9357 15.1C51.9357 16.5133 51.6291 17.74 51.0157 18.78C50.4157 19.82 49.5557 20.62 48.4357 21.18C47.3291 21.7267 46.0357 22 44.5557 22H40.0157V8.1H44.5557ZM44.5557 20.14C46.1824 20.14 47.4291 19.7 48.2957 18.82C49.1624 17.94 49.5957 16.7 49.5957 15.1C49.5957 13.4867 49.1624 12.2267 48.2957 11.32C47.4291 10.4133 46.1824 9.96 44.5557 9.96H42.2957V20.14H44.5557ZM74.0307 8.1V22H71.7507V12.48L67.5107 22H65.9307L61.6707 12.48V22H59.3907V8.1H61.8507L66.7307 19L71.5907 8.1H74.0307ZM83.3675 22.14C82.0741 22.14 80.8808 21.84 79.7875 21.24C78.7075 20.6267 77.8475 19.78 77.2075 18.7C76.5808 17.6067 76.2675 16.38 76.2675 15.02C76.2675 13.66 76.5808 12.44 77.2075 11.36C77.8475 10.28 78.7075 9.44 79.7875 8.84C80.8808 8.22667 82.0741 7.92 83.3675 7.92C84.6741 7.92 85.8675 8.22667 86.9475 8.84C88.0408 9.44 88.9008 10.28 89.5275 11.36C90.1541 12.44 90.4675 13.66 90.4675 15.02C90.4675 16.38 90.1541 17.6067 89.5275 18.7C88.9008 19.78 88.0408 20.6267 86.9475 21.24C85.8675 21.84 84.6741 22.14 83.3675 22.14ZM83.3675 20.16C84.2875 20.16 85.1075 19.9533 85.8275 19.54C86.5475 19.1133 87.1075 18.5133 87.5075 17.74C87.9208 16.9533 88.1275 16.0467 88.1275 15.02C88.1275 13.9933 87.9208 13.0933 87.5075 12.32C87.1075 11.5467 86.5475 10.9533 85.8275 10.54C85.1075 10.1267 84.2875 9.92 83.3675 9.92C82.4475 9.92 81.6275 10.1267 80.9075 10.54C80.1875 10.9533 79.6208 11.5467 79.2075 12.32C78.8075 13.0933 78.6075 13.9933 78.6075 15.02C78.6075 16.0467 78.8075 16.9533 79.2075 17.74C79.6208 18.5133 80.1875 19.1133 80.9075 19.54C81.6275 19.9533 82.4475 20.16 83.3675 20.16ZM99.9311 22L96.7311 16.44H94.9911V22H92.7111V8.1H97.5111C98.5777 8.1 99.4777 8.28667 100.211 8.66C100.958 9.03333 101.511 9.53333 101.871 10.16C102.244 10.7867 102.431 11.4867 102.431 12.26C102.431 13.1667 102.164 13.9933 101.631 14.74C101.111 15.4733 100.304 15.9733 99.2111 16.24L102.651 22H99.9311ZM94.9911 14.62H97.5111C98.3644 14.62 99.0044 14.4067 99.4311 13.98C99.8711 13.5533 100.091 12.98 100.091 12.26C100.091 11.54 99.8777 10.98 99.4511 10.58C99.0244 10.1667 98.3777 9.96 97.5111 9.96H94.9911V14.62ZM107.628 9.94V14.02H112.428V15.88H107.628V20.14H113.028V22H105.348V8.08H113.028V9.94H107.628Z" fill="#33A0FF"/>
<path d="M115 30H0.00012207V33H115V30Z" fill="#33A0FF"/>
</svg>
